<svg version="1.1" preserveAspectRatio="none" xmlns="http://www.w3.org/2000/svg" width="500" height="500" viewBox="0 0 500 500"><rect width="100%" height="100%" fill="#000000" fill-opacity="1"/><svg viewBox="436.1377 296.435 385.529 74.9634" width="417" height="81.08271440021373" x="41.5px" y="209.4586px" xmlns="http://www.w3.org/2000/svg" xmlns:xlink="http://www.w3.org/1999/xlink" preserveAspectRatio="none"><defs></defs><style>.aD6z1nYkhcolor748fe737-e63b-405b-bba6-2094d457d7a4 {fill:#FFFFFF;fill-opacity:1;}.aD6z1nYkhstrokeColor-str748fe737-e63b-405b-bba6-2094d457d7a4 {stroke:#D9D9D9;stroke-opacity:1;}</style><g opacity="1" transform="rotate(0 436.1377 296.435)">
<svg width="93.7044" height="74.9634" x="436.1377" y="296.435" version="1.1" preserveAspectRatio="none" viewBox="19.99947929382324 35.99961471557617 159.99903869628906 127.99909973144533">
  <g transform="matrix(1 0 0 1 0 0)" style="fill:#FFFFFF;fill-opacity:1;"><g><path d="M179.572 150.445c-.205-3.271-.489-6.537-.588-9.813-.181-5.989-.358-11.978-.713-17.959-.959-16.088-2.122-32.164-3.291-48.238-.294-4.048-.96-8.067-1.405-12.106-.437-3.966-.667-7.95-.936-11.93-.144-2.137.382-9.186-1.681-10.16-1.348-.636-4.182-.211-5.682-.256a202 202 0 0 0-6.13-.091c-7.831.003-15.645.593-23.477.593-21.189 0-42.431 1.738-63.627 2.276-9.573.243-19.152.332-28.725.556-4.319.101-8.638.21-12.955.361-1.869.065-9.129-.542-10.148 1.217-.251.435-.227.971-.195 1.472.62 9.705 1.324 19.404 1.937 29.109.708 11.212 1.199 22.44 2.072 33.639.834 10.707 1.953 21.395 3.107 32.074.76 7.05 1.77 14.072 2.709 21.1.347 2.601 5.652 1.476 7.283 1.421l12.012-.406c21.322-.72 42.651-1.095 63.981-1.481l.274-.005q10.218-.196 20.438-.385c6.999-.128 14.067-.559 21.045-.436 7.18.126 14.34.714 21.517.943.604.019 1.229.035 1.786-.198.853-.355 1.392-1.242 1.575-2.15q.112-.556.168-1.145c.253-2.571-.198-5.537-.352-8.003ZM23.694 66.015c-.716-1.043-.471-6.774-.52-7.794q-.203-4.295-.409-8.591c-.109-2.285 1.093-3.174 3.25-3.307 4.376-.268 8.741-.802 13.12-.939 7.63-.238 15.268-.206 22.901-.38 12.685-.288 25.398-.212 38.045-1.084a770 770 0 0 1 57.526-1.819c3.707.022 7.413.34 11.686.549.422.021 1.815 17.795 1.973 19.434.213 2.208-.67 1.792-2.695 1.935q-2.546.18-5.098.239c-10.074.233-20.193-.336-30.282-.265-10.267.072-20.532.304-30.793.658-16.17.566-32.341 1.119-48.511 1.692a353 353 0 0 1-22.841.072c-2.198-.065-5.041.302-7.161-.246q-.105-.029-.192-.155Zm96.243 93.445c-9.753.118-19.5.666-29.253.925-19.12.509-38.244.981-57.372.981-3.163-6.858-10.548-82.426-9.033-92.144 1.304-.113 2.71-.312 4.12-.346 18.866-.455 37.734-.853 56.599-1.34 21.112-.58 42.133-2.301 63.273-1.298 3.901.185 7.789.486 11.694.486 3.699.11 7.403.017 11.583.017 3.742 30.827 5.621 60.664 5.437 92.133-4.621 0-42.394.409-57.049.585Z"></path><path d="M87.908 42.312c.071 2.864-1.576 10.262-4.487 5.342-1.356-2.29-.515-7.093.399-9.46 2.12-5.493 4 .639 4.088 4.118"></path><path d="M42.521 49.926c-.492.109-1.12-.142-1.915-.901-2.537-2.424-3.093-7.651-1.673-10.741 1.534-3.335 4.301-.807 4.905 1.75.377 1.599.902 9.399-1.317 9.892"></path><path d="M62.512 36.646c.624-.71 1.359-.459 2.122 1.671.994 2.772 1.905 6.738.198 9.577-2.383 3.963-3.506-.02-4.054-2.652-.351-1.685.46-7.145 1.734-8.596"></path><path d="M154.115 42.312c.071 2.864-1.576 10.262-4.487 5.342-1.356-2.29-.515-7.093.399-9.46 2.12-5.493 4 .639 4.088 4.118"></path><path d="M108.728 49.926c-.492.109-1.12-.142-1.915-.901-2.537-2.424-3.093-7.651-1.673-10.741 1.535-3.335 4.301-.807 4.905 1.75.377 1.599.902 9.399-1.317 9.892"></path><path d="M128.719 36.646c.624-.71 1.359-.459 2.122 1.671.994 2.772 1.905 6.738.198 9.577-2.383 3.963-3.506-.02-4.054-2.652-.351-1.685.46-7.145 1.734-8.596"></path><path d="M71.228 76.559c6.247-.322 12.453-.645 19.106-.989v18.504c-6.331.625-12.412 1.229-19.106 1.895z"></path><path d="M124.253 75.309c.301 6.082.613 12.298.956 19.025h-18.357c-.499-6.332-.987-12.423-1.518-19.025z"></path><path d="M55.272 76.351c.301 6.081.624 12.298.957 19.025H37.871c-.499-6.331-.987-12.423-1.518-19.025z"></path><path d="M159.314 73.487v18.504c-6.331.625-12.411 1.229-19.106 1.895v-19.41z"></path><path d="M93.453 104.726v18.504c-6.33.625-12.412 1.229-19.106 1.895v-19.41c6.247-.322 12.453-.645 19.106-.989"></path><path d="M58.39 105.507c.301 6.081.624 12.298.957 19.025H40.99c-.499-6.331-.988-12.423-1.518-19.025h18.919Z"></path><path d="M60.469 134.664c.301 6.081.624 12.298.957 19.025H43.068c-.499-6.332-.987-12.423-1.518-19.025z"></path><path d="M95.531 133.883v18.504c-6.33.625-12.411 1.228-19.106 1.895v-19.41z"></path><path d="M159.314 102.644v18.504c-6.331.625-12.411 1.228-19.106 1.895v-19.41c6.237-.323 12.453-.646 19.106-.989"></path><path d="M120.555 105.249c-1.008.514-1.949 1.357-3.114 1.989-1.336.725-1.993.078-3.151-.502-4.561-2.286-10.499.44-8.272 6.032 1.569 3.939 5.486 8.22 8.769 10.781 3.613 2.818 5.57-.249 7.59-3.291 2.369-3.567 7.549-11.93 1.925-14.907-1.549-.82-2.685-.644-3.748-.102Zm3.31 6.661c-.814 3.752-3.854 7.083-6.546 9.55-.956.876-7.607-7.23-8.148-8.182-.884-1.556-1.571-3.904.446-4.877 1.431-.69 2.756-.365 3.914.649 2.1 1.839 3.86 2.072 5.74-.361.975-1.261 3.243-2.291 4.343-.562.402.632.481 1.417.455 2.166a9 9 0 0 1-.205 1.616Z"></path></g></g>
</svg>
</g><g opacity="1" transform="rotate(0 546.3521 300.8582)">
<svg width="275.3146" height="66.117" x="546.3521" y="300.8582" version="1.1" preserveAspectRatio="none" viewBox="2.8 -29.68 157.39999999999998 37.8">
  <g transform="matrix(1 0 0 1 0 0)" class="aD6z1nYkhcolor748fe737-e63b-405b-bba6-2094d457d7a4"><path id="id-748fe737-e63b-405b-bba6-2094d457d7a4D6z1nYkh7" d="M10.64-6.12L25.28-6.12L25.28 0L2.80 0L2.80-28L24.76-28L24.76-21.88L10.64-21.88L10.64-17.16L23.08-17.16L23.08-11.24L10.64-11.24L10.64-6.12Z M44.84-21.68L52.08-21.68L43.12 0L35.28 0L26.36-21.68L34.16-21.68L39.36-8.44L44.84-21.68Z M75.60-10.80Q75.60-10.72 75.48-8.92L75.48-8.92L59.72-8.92Q60.20-7.24 61.58-6.34Q62.96-5.44 65.04-5.44L65.04-5.44Q66.60-5.44 67.74-5.88Q68.88-6.32 70.04-7.32L70.04-7.32L74.04-3.16Q70.88 0.36 64.80 0.36L64.80 0.36Q61 0.36 58.12-1.08Q55.24-2.52 53.66-5.08Q52.08-7.64 52.08-10.88L52.08-10.88Q52.08-14.08 53.62-16.62Q55.16-19.16 57.88-20.60Q60.60-22.04 64-22.04L64-22.04Q67.24-22.04 69.88-20.70Q72.52-19.36 74.06-16.82Q75.60-14.28 75.60-10.80L75.60-10.80ZM64.04-16.64Q62.28-16.64 61.10-15.64Q59.92-14.64 59.60-12.92L59.60-12.92L68.48-12.92Q68.16-14.64 66.98-15.64Q65.80-16.64 64.04-16.64L64.04-16.64Z M93.24-22.04Q97.28-22.04 99.74-19.64Q102.20-17.24 102.20-12.40L102.20-12.40L102.20 0L94.60 0L94.60-11.16Q94.60-15.60 91.04-15.60L91.04-15.60Q89.08-15.60 87.90-14.32Q86.72-13.04 86.72-10.48L86.72-10.48L86.72 0L79.12 0L79.12-21.68L86.36-21.68L86.36-19.32Q87.64-20.64 89.40-21.34Q91.16-22.04 93.24-22.04L93.24-22.04Z M120.04-6.20L121.92-0.88Q120.96-0.28 119.58 0.04Q118.20 0.36 116.64 0.36L116.64 0.36Q112.40 0.36 110.12-1.72Q107.84-3.80 107.84-7.92L107.84-7.92L107.84-15.20L104.68-15.20L104.68-20.88L107.84-20.88L107.84-26.52L115.44-26.52L115.44-20.88L120.40-20.88L120.40-15.20L115.44-15.20L115.44-8Q115.44-6.84 116.06-6.18Q116.68-5.52 117.72-5.52L117.72-5.52Q119.04-5.52 120.04-6.20L120.04-6.20Z M124.84 0L124.84-29.68L132.44-29.68L132.44 0L124.84 0Z M152.96-21.68L160.20-21.68L150.84 0.88Q149.20 4.88 146.84 6.50Q144.48 8.12 141.08 8.12L141.08 8.12Q139.36 8.12 137.62 7.58Q135.88 7.04 134.80 6.16L134.80 6.16L137.44 0.84Q138.08 1.44 138.98 1.78Q139.88 2.12 140.80 2.12L140.80 2.12Q141.88 2.12 142.58 1.68Q143.28 1.24 143.76 0.28L143.76 0.28L134.48-21.68L142.28-21.68L147.60-8.44L152.96-21.68Z"/></g>
</svg>
</g></svg></svg>