<svg xmlns="http://www.w3.org/2000/svg" version="1.1" xmlns:xlink="http://www.w3.org/1999/xlink" xmlns:svgjs="http://svgjs.dev/svgjs" viewBox="0 0 800 800"><defs><symbol id="bbburst-shape-11" viewBox="0 0 194 167"><path d="M10.398 161 97 11l86.603 150H10.397Z" stroke-width="11"></path></symbol><symbol id="bbburst-shape-13" viewBox="0 0 159 159"><path stroke-width="22" d="M11 11h137v137H11z"></path></symbol></defs><use xlink:href="#bbburst-shape-13" width="50.78443245694583" opacity="0.3986093712179072" transform="matrix(0.7154720125021188,-0.6986413953711647,0.6986413953711647,0.7154720125021188,190.567836068546,-124.3012983898627)" fill="none" stroke="#5ea2ef"></use><use xlink:href="#bbburst-shape-11" width="42.3007177914369" opacity="0.4176055011788852" transform="matrix(0.8032754702569046,-0.5956076887377704,0.5956076887377704,0.8032754702569046,70.40579501405122,-160.55314478997173)" fill="none" stroke="#0072f5"></use><use xlink:href="#bbburst-shape-11" width="44.58896063301469" opacity="0.13031537472654553" transform="matrix(0.996254529710817,-0.08646913918086009,0.08646913918086009,0.996254529710817,696.6054211978872,170.87610790647955)" fill="none" stroke="#0072f5"></use><use xlink:href="#bbburst-shape-11" width="28.178566870532908" opacity="0.8936962754424406" transform="matrix(0.9933594283046169,0.11505236285415743,-0.11505236285415743,0.9933594283046169,479.45531222842254,-5.859562962216216)" fill="none" stroke="#0072f5"></use><use xlink:href="#bbburst-shape-11" width="37.47289687604353" opacity="0.7159446119453561" transform="matrix(0.9452060695671467,-0.3264743267906776,0.3264743267906776,0.9452060695671467,368.5627353424645,79.01300341177677)" fill="none" stroke="#5ea2ef"></use><use xlink:href="#bbburst-shape-11" width="45.095033623504634" opacity="0.5193522100643206" transform="matrix(0.8022816850096656,-0.596945640655874,0.596945640655874,0.8022816850096656,358.6531595601865,78.54843189911207)" fill="none" stroke="#5ea2ef"></use><use xlink:href="#bbburst-shape-13" width="35.37804850398828" opacity="0.5217941071375285" transform="matrix(0.9004250981590708,0.43501108331308963,-0.43501108331308963,0.9004250981590708,500.6477665259273,239.52304814775732)" fill="none" stroke="#5ea2ef"></use><use xlink:href="#bbburst-shape-11" width="42.035081144516845" opacity="-0.04713081840354505" transform="matrix(0.7345933356414031,0.6785076500904297,-0.6785076500904297,0.7345933356414031,330.73755859273064,-249.122521694076)" fill="none" stroke="#0072f5"></use><use xlink:href="#bbburst-shape-11" width="37.34100434350178" opacity="0.3540205369625189" transform="matrix(0.8640130956242315,0.5034693343092831,-0.5034693343092831,0.8640130956242315,311.58311821584107,-52.74270309984439)" fill="none" stroke="#0072f5"></use><use xlink:href="#bbburst-shape-11" width="36.77960158602004" opacity="0.14555723357141792" transform="matrix(0.9975518148752565,-0.06993122792488315,0.06993122792488315,0.9975518148752565,509.0220297439688,-349.9162891466709)" fill="none" stroke="#5ea2ef"></use><use xlink:href="#bbburst-shape-13" width="34.22924147135782" opacity="0.818955693579806" transform="matrix(0.8854248297777956,-0.46478260597075033,0.46478260597075033,0.8854248297777956,127.0130853366652,92.05784343424637)" fill="none" stroke="#5ea2ef"></use><use xlink:href="#bbburst-shape-11" width="37.3548551276002" opacity="0.3985197357615915" transform="matrix(0.740193105516551,0.6723943534457766,-0.6723943534457766,0.740193105516551,506.4904357707982,316.99293262798597)" fill="none" stroke="#0072f5"></use><use xlink:href="#bbburst-shape-11" width="54.48006100227089" opacity="0.3829304454819974" transform="matrix(0.9989161556857528,0.046545825913790535,-0.046545825913790535,0.9989161556857528,534.0546762132294,236.7248946085719)" fill="none" stroke="#0072f5"></use><use xlink:href="#bbburst-shape-11" width="36.4693236092629" opacity="0.23261030597976107" transform="matrix(0.9874476756899823,-0.1579464712314005,0.1579464712314005,0.9874476756899823,101.68316234798294,-261.14321787419016)" fill="none" stroke="#5ea2ef"></use><use xlink:href="#bbburst-shape-11" width="30.478852467453205" opacity="0.7701086722362911" transform="matrix(0.9947577334311452,0.10225972706266526,-0.10225972706266526,0.9947577334311452,326.25283037499446,-28.058162469374963)" fill="none" stroke="#5ea2ef"></use><use xlink:href="#bbburst-shape-11" width="36.866068244342166" opacity="0.19260678615028104" transform="matrix(0.9319169648446456,0.36267171193069864,-0.36267171193069864,0.9319169648446456,170.38120404087454,-43.69330185530134)" fill="none" stroke="#0072f5"></use><use xlink:href="#bbburst-shape-11" width="57.52269407352644" opacity="-0.04162494321748045" transform="matrix(0.9999855969598286,-0.005367110292810127,0.005367110292810127,0.9999855969598286,693.5251956073508,-338.8851744227493)" fill="none" stroke="#0072f5"></use><use xlink:href="#bbburst-shape-13" width="43.071918438670295" opacity="0.24185845031153375" transform="matrix(0.9991682425863015,-0.04077772684936744,0.04077772684936744,0.9991682425863015,619.7330958929018,224.9392277757629)" fill="none" stroke="#5ea2ef"></use><use xlink:href="#bbburst-shape-11" width="51.691083416056244" opacity="-0.06353979697019585" transform="matrix(0.9979424876209804,-0.0641154536820063,0.0641154536820063,0.9979424876209804,16.410277522530407,346.4240469990494)" fill="none" stroke="#5ea2ef"></use><use xlink:href="#bbburst-shape-13" width="34.15936508887006" opacity="0.19788859791427083" transform="matrix(0.9773037747526768,0.21184270545423325,-0.21184270545423325,0.9773037747526768,530.0693319192587,361.0414702374287)" fill="none" stroke="#0072f5"></use><use xlink:href="#bbburst-shape-11" width="43.25684163019566" opacity="0.5308485887736691" transform="matrix(0.8638089292240642,-0.5038195448697635,0.5038195448697635,0.8638089292240642,332.31744145064187,-80.78018101826217)" fill="none" stroke="#0072f5"></use><use xlink:href="#bbburst-shape-11" width="42.30037882326734" opacity="0.3967860084248749" transform="matrix(0.9955275435568165,-0.09447174191117091,0.09447174191117091,0.9955275435568165,373.9798387002452,272.6925219755647)" fill="none" stroke="#0072f5"></use><use xlink:href="#bbburst-shape-13" width="34.90078944737511" opacity="0.604252091493475" transform="matrix(0.7244628087400555,-0.6893138898589449,0.6893138898589449,0.7244628087400555,221.62378500690295,262.30327718753534)" fill="none" stroke="#5ea2ef"></use><use xlink:href="#bbburst-shape-13" width="40.663677380640316" opacity="0.11238322602961126" transform="matrix(0.9321582947193775,-0.36205098202582214,0.36205098202582214,0.9321582947193775,583.7259386472289,-162.44612267561186)" fill="none" stroke="#0072f5"></use><use xlink:href="#bbburst-shape-13" width="57.45852307009035" opacity="0.24573963087779416" transform="matrix(0.7541616700910895,0.6566887964366521,-0.6566887964366521,0.7541616700910895,576.8744435419954,412.7719741324813)" fill="none" stroke="#0072f5"></use><use xlink:href="#bbburst-shape-11" width="51.37936659146948" opacity="0.23177147852512403" transform="matrix(0.8254643800599242,-0.5644542118296976,0.5644542118296976,0.8254643800599242,151.21128702696646,-261.9315297040553)" fill="none" stroke="#0072f5"></use><use xlink:href="#bbburst-shape-13" width="40.91338381130311" opacity="0.4261591473354631" transform="matrix(0.9299592720489962,0.36766255225423905,-0.36766255225423905,0.9299592720489962,336.0415909821402,-152.18398924371354)" fill="none" stroke="#0072f5"></use><use xlink:href="#bbburst-shape-13" width="41.04833902238818" opacity="0.4756689802075691" transform="matrix(0.9926231919870333,-0.12124025210083145,0.12124025210083145,0.9926231919870333,537.1275604174434,120.49293765652658)" fill="none" stroke="#0072f5"></use><use xlink:href="#bbburst-shape-13" width="29.521752158772657" opacity="0.5790995109727346" transform="matrix(0.8119623536047464,0.5837098048933568,-0.5837098048933568,0.8119623536047464,656.586474800635,252.7257625984558)" fill="none" stroke="#5ea2ef"></use><use xlink:href="#bbburst-shape-13" width="39.290101170700225" opacity="0.549516853316053" transform="matrix(0.999998229995036,0.0018814905780119098,-0.0018814905780119098,0.999998229995036,216.21104902192076,117.87678593495764)" fill="none" stroke="#5ea2ef"></use><use xlink:href="#bbburst-shape-13" width="40.910225132073684" opacity="0.33739127928207724" transform="matrix(0.9629287442688986,-0.2697558775276677,0.2697558775276677,0.9629287442688986,14.732925129331804,170.3961498802093)" fill="none" stroke="#5ea2ef"></use><use xlink:href="#bbburst-shape-11" width="44.06856254232436" opacity="0.08771227673627857" transform="matrix(0.8604725580654561,-0.5094967878370681,0.5094967878370681,0.8604725580654561,-172.98227432266208,281.21225094419316)" fill="none" stroke="#5ea2ef"></use><use xlink:href="#bbburst-shape-11" width="43.72523776226276" opacity="0.4173848656605267" transform="matrix(0.9716127191530207,-0.2365770994413308,0.2365770994413308,0.9716127191530207,23.285161597156176,43.68604976877879)" fill="none" stroke="#0072f5"></use><use xlink:href="#bbburst-shape-11" width="44.35799308504549" opacity="0.121327673438683" transform="matrix(0.8970895749184308,-0.441848723629105,0.441848723629105,0.8970895749184308,24.57346694968615,403.25048856312327)" fill="none" stroke="#0072f5"></use><use xlink:href="#bbburst-shape-11" width="51.39632278908431" opacity="0.2993369846427061" transform="matrix(0.9712562029084658,-0.23803652726384072,0.23803652726384072,0.9712562029084658,588.5608139115657,80.20450383059404)" fill="none" stroke="#0072f5"></use><use xlink:href="#bbburst-shape-13" width="35.61865484605363" opacity="0.7601579685272726" transform="matrix(0.9630805982389358,0.26921322645021284,-0.26921322645021284,0.9630805982389358,543.300753833286,-84.17696362769294)" fill="none" stroke="#5ea2ef"></use><use xlink:href="#bbburst-shape-11" width="36.41839227109656" opacity="0.6325550346122437" transform="matrix(0.8784745454554733,0.47778915118156406,-0.47778915118156406,0.8784745454554733,412.67766529649447,69.1709941174446)" fill="none" stroke="#5ea2ef"></use><use xlink:href="#bbburst-shape-13" width="43.92474863172252" opacity="0.214812317910705" transform="matrix(0.7542124264027263,-0.6566305017737999,0.6566305017737999,0.7542124264027263,471.86938494291115,72.93725721586361)" fill="none" stroke="#0072f5"></use><use xlink:href="#bbburst-shape-13" width="33.75680243027964" opacity="0.703282752904453" transform="matrix(0.8428837361564655,0.5380957231970143,-0.5380957231970143,0.8428837361564655,727.3825170884578,10.650976747996538)" fill="none" stroke="#5ea2ef"></use><use xlink:href="#bbburst-shape-13" width="41.56916504440918" opacity="0.19283027319347767" transform="matrix(0.7984174151090682,0.6021043358509834,-0.6021043358509834,0.7984174151090682,380.90477405699636,337.78126504084986)" fill="none" stroke="#0072f5"></use><use xlink:href="#bbburst-shape-11" width="43.471134010803794" opacity="0.556925630590591" transform="matrix(0.7231067469584056,-0.6907362973691424,0.6907362973691424,0.7231067469584056,-82.78506815419863,66.14789182882043)" fill="none" stroke="#0072f5"></use><use xlink:href="#bbburst-shape-11" width="45.39816710205271" opacity="0.3606642063870463" transform="matrix(0.9628996382027374,-0.26985975385195443,0.26985975385195443,0.9628996382027374,531.9879188058333,-98.57608704382244)" fill="none" stroke="#0072f5"></use><use xlink:href="#bbburst-shape-11" width="53.32939692202571" opacity="0.19886265213702348" transform="matrix(0.9982906803888488,-0.05844413955880602,0.05844413955880602,0.9982906803888488,-2.57617876577671,76.95401107389017)" fill="none" stroke="#0072f5"></use><use xlink:href="#bbburst-shape-13" width="57.53405938654969" opacity="0.2533705160741695" transform="matrix(0.9935834923474731,-0.11310103330473553,0.11310103330473553,0.9935834923474731,550.5296875590902,-244.2811576718005)" fill="none" stroke="#0072f5"></use><use xlink:href="#bbburst-shape-13" width="50.23015115731522" opacity="0.12005613537506354" transform="matrix(0.9791084830045684,-0.20333858096409738,0.20333858096409738,0.9791084830045684,490.83866387013234,357.09077887845325)" fill="none" stroke="#5ea2ef"></use><use xlink:href="#bbburst-shape-13" width="30.387719644324683" opacity="0.7552388353794555" transform="matrix(0.9286342116955365,-0.37099663188310694,0.37099663188310694,0.9286342116955365,256.62706936451474,142.65077116259556)" fill="none" stroke="#0072f5"></use><use xlink:href="#bbburst-shape-13" width="44.00363975501105" opacity="-0.04473332833249444" transform="matrix(0.8293344338215322,0.5587525363503227,-0.5587525363503227,0.8293344338215322,941.5385741518354,384.5073039197008)" fill="none" stroke="#5ea2ef"></use><use xlink:href="#bbburst-shape-11" width="33.63148049512481" opacity="0.5933945875421458" transform="matrix(0.856388712394294,-0.5163316504763611,0.5163316504763611,0.856388712394294,213.09726506438614,-113.98155606984452)" fill="none" stroke="#5ea2ef"></use><use xlink:href="#bbburst-shape-11" width="30.417845732671047" opacity="0.6938570493293736" transform="matrix(0.8350406296514136,0.5501882830735044,-0.5501882830735044,0.8350406296514136,533.9994934442415,173.750295529859)" fill="none" stroke="#5ea2ef"></use><use xlink:href="#bbburst-shape-11" width="38.44814747616178" opacity="0.859939954897521" transform="matrix(0.7155369857517077,0.6985748506934389,-0.6985748506934389,0.7155369857517077,640.5008693155405,42.37180885135564)" fill="none" stroke="#5ea2ef"></use><use xlink:href="#bbburst-shape-11" width="47.421685371304946" opacity="0.11874772535098155" transform="matrix(0.9203533339289879,-0.3910878938624884,0.3910878938624884,0.9203533339289879,-116.51340881574865,-166.81254239602268)" fill="none" stroke="#5ea2ef"></use><use xlink:href="#bbburst-shape-13" width="32.50895111888199" opacity="0.6338942930168028" transform="matrix(0.9963675526657457,0.08515691395813027,-0.08515691395813027,0.9963675526657457,362.983441276275,-155.26800650559068)" fill="none" stroke="#0072f5"></use><use xlink:href="#bbburst-shape-11" width="42.67075738146737" opacity="0.14433518512506305" transform="matrix(0.9999150138588515,0.013037064840395768,-0.013037064840395768,0.9999150138588515,230.32959631007995,-353.8981570562326)" fill="none" stroke="#5ea2ef"></use><use xlink:href="#bbburst-shape-11" width="36.02481424202796" opacity="0.6465646657075278" transform="matrix(0.9919764904980048,-0.12642247545140725,0.12642247545140725,0.9919764904980048,215.44814054601517,-103.72379677746892)" fill="none" stroke="#0072f5"></use><use xlink:href="#bbburst-shape-11" width="25.348754826900468" opacity="0.909537883832856" transform="matrix(0.9898882761809326,0.14184921811395987,-0.14184921811395987,0.9898882761809326,445.6616864064983,42.6065903033404)" fill="none" stroke="#5ea2ef"></use></svg>