<svg xmlns="http://www.w3.org/2000/svg" version="1.1" xmlns:xlink="http://www.w3.org/1999/xlink" xmlns:svgjs="http://svgjs.dev/svgjs" viewBox="0 0 800 800"><defs><linearGradient x1="50%" y1="0%" x2="50%" y2="100%" id="ccchaos-grad"><stop stop-color="#5EA2EF" stop-opacity="1" offset="0%"></stop><stop stop-color="#0072F5" stop-opacity="1" offset="100%"></stop></linearGradient></defs><g stroke-width="2" stroke="url(#ccchaos-grad)" fill="none" stroke-linecap="round"><path d="M389.4 126.95C399.02 124.77 408.77 122.29 418.63 119.74 428.52 116.84 438.56 114.43 448.73 112.74 458.95 111.52 469.35 111.46 479.89 112.66 490.51 114.78 501.31 118.25 512.23 123 523.23 128.58 534.33 135.2 545.48 142.67 556.61 150.51 567.69 158.84 578.6 167.43 589.32 175.88 599.69 184.31 609.56 192.59 618.97 200.38 627.64 207.9 635.38 215.13 642.39 221.77 648.26 228.17 652.86 234.39 657.72 242.96 659.51 259.7 656.91 268.31 654.53 273.98 651.55 280.01 648.23 286.41 645.45 292.77 642.95 299.57 641.05 306.79 640.5 314.01 641.04 321.67 642.84 329.75 646.39 337.83 651.26 346.32 657.34 355.19 664.78 364.07 672.93 373.32 681.36 382.94 690.04 392.56 697.89 402.33 704.51 412.25 710.11 422.2 713.81 432.33 715.43 442.64 715.39 453.03 713.15 463.65 708.82 474.5 702.98 485.47 695.41 496.7 686.44 508.16 676.62 519.72 665.98 531.48 654.85 543.35 643.69 555.18 632.55 566.97 621.67 578.53 611.36 589.77 601.58 600.5 592.41 610.5 584.05 619.74 576.31 627.89 569.15 634.72 562.74 640.44 556.75 644.61 551.06 647.13 543.36 648.44 528.39 643.3 520.54 638.56 515.3 635.89 509.64 633.7 503.52 632.45 497.39 633.02 490.75 635.22 483.59 639.25 476.39 645.51 468.67 653.49 460.45 662.88 452.19 673.53 443.46 684.53 434.28 695.14 425.08 704.97 415.46 712.97 405.46 718.42 395.46 721.31 385.34 720.91 375.14 717.34 364.96 711.31 354.73 702.85 344.49 692.59 334.29 681.5 324.11 669.93 313.99 658.57 303.93 648.2 293.97 639.01 284.15 631.31 274.44 625.54 264.92 621.42 255.64 618.8 246.53 617.9 237.72 617.98 229.28 618.67 221.05 620.16 213.24 621.53 205.91 622.43 198.83 623.17 192.25 622.91 186.23 621.5 180.45 619.35 175.22 615.87 170.55 611.09 166.05 605.48 162.06 598.67 158.55 590.84 155.1 582.35 152.04 573.06 149.35 563.18 146.55 552.9 144 542.24 141.68 531.37 139.1 520.32 136.66 509.21 134.36 498.13 131.71 487.02 129.18 476.01 126.79 465.18 124.08 454.36 121.56 443.73 119.28 433.34 116.84 422.95 114.76 412.79 113.12 402.88 111.54 392.96 110.58 383.51 110.29 374.51 110.24 365.48 110.94 356.88 112.41 348.7 114.21 340.46 116.79 332.59 120.1 325.07 123.74 317.44 128.06 310.09 132.99 302.98 138.13 295.67 143.78 288.49 149.86 281.41 155.98 274 162.42 266.57 169.11 259.06 175.68 251.13 182.41 243.03 189.26 234.74 195.87 226.02 202.56 217.11 209.31 208.06 215.79 198.73 222.34 189.39 228.96 180.18 235.33 171.02 241.82 162.25 248.45 154.06 254.87 146.35 261.49 139.52 268.32 133.74 275.02 128.77 281.97 125 289.19 122.51 296.34 120.82 303.78 120.27 311.53 120.75 319.23 121.58 327.25 123.03 335.6 124.87 343.91 126.31 352.56 127.64 361.53 128.66 370.48 128.67 379.77 128.11 389.39 126.95" stroke-dasharray="9 11" transform="rotate(0, 400, 400)" opacity="0.69"></path><path d="M394.76 138.33C404.14 136.19 413.66 133.76 423.3 131.25 432.97 128.39 442.79 125.95 452.75 124.16 462.75 122.75 472.91 122.41 483.19 123.24 493.52 124.9 503.98 127.86 514.51 132.04 525.07 137.05 535.65 143.12 546.19 150.07 556.65 157.48 566.97 165.46 577.01 173.82 586.81 182.17 596.16 190.61 604.94 199 613.23 207.04 620.75 214.88 627.32 222.48 633.21 229.57 638 236.43 641.59 243.09 644.41 249.27 646 255.34 646.39 261.37 646.17 267.05 644.94 272.83 642.85 278.75 640.63 284.47 637.98 290.45 635.13 296.73 632.9 302.91 631 309.46 629.72 316.4 629.72 323.29 630.74 330.59 632.89 338.31 636.63 346 641.54 354.12 647.5 362.64 654.68 371.15 662.44 380.08 670.43 389.42 678.65 398.77 686.1 408.32 692.42 418.06 697.86 427.83 701.57 437.82 703.4 448.02 703.75 458.26 702.07 468.75 698.46 479.44 693.42 490.19 686.73 501.15 678.65 512.26 669.7 523.38 659.85 534.57 649.4 545.73 638.79 556.74 628.03 567.54 617.37 577.95 607.11 587.94 597.21 597.28 587.78 605.76 579.03 613.48 570.8 620.06 563.09 625.35 556.07 629.63 549.46 632.49 543.17 633.89 534.63 634.03 518.42 628.46 510.25 624.45 504.88 622.53 499.2 621.24 493.17 620.97 487.16 622.46 480.74 625.48 473.88 630.17 466.99 636.83 459.65 644.97 451.85 654.28 444.03 664.6 435.76 675.11 427.07 685.15 418.36 694.4 409.25 701.91 399.76 707.05 390.28 709.85 380.66 709.61 370.97 706.44 361.3 701 351.57 693.25 341.84 683.73 332.16 673.31 322.5 662.28 312.91 651.25 303.39 640.95 293.98 631.55 284.73 623.38 275.6 616.88 266.68 611.86 258.02 608.23 249.52 606.25 241.34 605.31 233.54 605.1 225.94 605.83 218.75 606.69 212.04 607.35 202.55 608.14 186.43 604.79 179.8 599.98 175.69 595.7 172.03 590.3 168.82 583.89 165.61 576.87 162.75 569 160.22 560.43 157.54 551.46 155.08 541.98 152.82 532.16 150.28 522.12 147.86 511.89 145.56 501.57 142.92 491.17 140.38 480.78 137.95 470.47 135.23 460.15 132.68 449.95 130.36 439.92 127.89 429.9 125.75 420.05 124.05 410.41 122.4 400.77 121.35 391.55 120.95 382.73 120.79 373.89 121.36 365.42 122.66 357.31 124.3 349.14 126.7 341.28 129.82 333.69 133.26 325.98 137.38 318.47 142.11 311.13 147.07 303.57 152.54 296.09 158.46 288.63 164.45 280.86 170.77 273.03 177.37 265.09 183.88 256.79 190.58 248.33 197.4 239.71 204.04 230.77 210.76 221.72 217.56 212.61 224.1 203.35 230.71 194.2 237.39 185.29 243.82 176.55 250.36 168.3 257 160.72 263.44 153.68 270.04 147.56 276.82 142.49 283.44 138.2 290.29 135.07 297.38 133.13 304.37 131.89 311.63 131.69 319.17 132.41 326.65 133.37 334.43 134.86 342.53 136.66 350.58 138.03 358.96 139.25 367.67 140.15 376.35 140.1 385.38 139.49 394.75 138.33" stroke-dasharray="2 2" transform="rotate(4.04, 400, 400)" opacity="0.73"></path><path d="M400.47 149.7C409.59 147.61 418.86 145.24 428.25 142.79 437.66 139.97 447.22 137.52 456.89 135.65 466.59 134.09 476.41 133.49 486.32 133.97 496.26 135.2 506.26 137.64 516.28 141.27 526.27 145.69 536.22 151.17 546.04 157.55 555.73 164.46 565.18 172.02 574.29 180.03 583.11 188.16 591.42 196.49 599.1 204.88 606.31 213.03 612.72 221.08 618.2 228.96 623.06 236.43 626.89 243.69 629.63 250.75 631.71 257.38 632.72 263.87 632.68 270.28 632.21 276.33 630.9 282.39 628.9 288.53 626.93 294.44 624.66 300.52 622.31 306.82 620.62 312.98 619.32 319.45 618.61 326.23 619.13 332.95 620.57 340.04 623.04 347.5 626.93 354.93 631.84 362.77 637.66 371.01 644.56 379.23 651.95 387.87 659.5 396.95 667.27 406.02 674.32 415.32 680.35 424.82 685.61 434.35 689.31 444.1 691.31 454.04 691.99 464.01 690.82 474.19 687.86 484.52 683.59 494.86 677.74 505.33 670.54 515.84 662.46 526.29 653.43 536.68 643.72 546.91 633.73 556.9 623.47 566.54 613.16 575.67 603.08 584.31 593.22 592.22 583.7 599.2 574.71 605.45 566.14 610.59 558.02 614.49 550.49 617.55 543.35 619.34 536.55 619.88 530.24 619.8 524.14 618.72 518.16 616.84 512.52 614.98 506.85 612.86 501.09 610.83 495.52 609.72 489.73 609.34 483.68 610 477.7 612.34 471.38 616.1 464.71 621.34 458.05 628.31 450.99 636.53 443.54 645.69 436.07 655.65 428.21 665.66 419.96 675.12 411.7 683.81 403.06 690.84 394.08 695.67 385.09 698.38 375.99 698.29 366.83 695.51 357.68 690.62 348.49 683.55 339.31 674.76 330.17 665.04 321.07 654.59 312.06 643.96 303.12 633.83 294.31 624.35 285.68 615.85 277.16 608.77 268.87 602.97 260.85 598.43 253 595.43 245.46 593.47 238.3 592.33 231.33 592.2 224.76 592.39 218.65 592.6 210.02 593.17 195.39 591.01 189.37 587.48 185.6 584.29 182.24 580.09 179.28 574.94 176.28 569.25 173.59 562.72 171.18 555.45 168.59 547.77 166.2 539.52 163.97 530.82 161.46 521.88 159.05 512.63 156.73 503.19 154.09 493.63 151.53 483.97 149.08 474.3 146.34 464.59 143.77 454.92 141.42 445.34 138.91 435.75 136.74 426.27 134.98 416.93 133.27 407.58 132.14 398.58 131.64 389.92 131.37 381.24 131.8 372.86 132.95 364.77 134.42 356.61 136.63 348.69 139.54 340.97 142.78 333.13 146.68 325.42 151.19 317.8 155.94 309.99 161.21 302.19 166.93 294.36 172.75 286.28 178.93 278.1 185.39 269.82 191.81 261.25 198.44 252.55 205.22 243.75 211.85 234.74 218.58 225.69 225.39 216.69 231.99 207.66 238.66 198.84 245.39 190.37 251.89 182.17 258.48 174.54 265.16 167.64 271.64 161.32 278.25 155.92 285.01 151.57 291.62 147.95 298.42 145.42 305.42 143.99 312.31 143.17 319.45 143.27 326.83 144.18 334.15 145.24 341.75 146.74 349.64 148.47 357.48 149.75 365.64 150.86 374.11 151.65 382.56 151.52 391.34 150.87 400.46 149.7" stroke-dasharray="11 7" transform="rotate(8.08, 400, 400)" opacity="0.31"></path><path d="M406.15 161.08C415.01 159.03 424 156.73 433.09 154.34 442.2 151.58 451.42 149.14 460.73 147.21 470.05 145.52 479.46 144.7 488.91 144.85 498.35 145.68 507.8 147.63 517.2 150.7 526.53 154.53 535.75 159.4 544.77 165.19 553.62 171.53 562.17 178.58 570.3 186.16 578.13 193.95 585.41 202.05 592.03 210.3 598.21 218.44 603.59 226.57 608.09 234.61 612.04 242.34 615.05 249.92 617.06 257.32 618.56 264.35 619.13 271.25 618.81 278.03 618.21 284.47 616.93 290.88 615.12 297.31 613.46 303.48 611.61 309.76 609.78 316.2 608.63 322.47 607.89 328.97 607.73 335.72 608.71 342.39 610.53 349.37 613.26 356.68 617.26 363.95 622.15 371.58 627.82 379.59 634.43 387.58 641.44 395.97 648.58 404.77 655.89 413.56 662.56 422.57 668.29 431.77 673.36 440.97 677.03 450.38 679.16 459.93 680.13 469.49 679.41 479.2 677.05 488.98 673.49 498.74 668.44 508.52 662.09 518.24 654.87 527.84 646.68 537.27 637.74 546.41 628.45 555.25 618.78 563.65 608.92 571.44 599.17 578.73 589.5 585.23 580.03 590.81 570.95 595.72 562.2 599.59 553.81 602.33 545.91 604.4 538.35 605.38 531.12 605.34 524.33 604.91 517.77 603.75 511.37 602.04 505.31 600.55 499.29 599.03 493.25 597.76 487.41 597.49 481.45 598.01 475.32 599.56 469.28 602.66 463 607.05 456.44 612.75 449.9 619.94 443.05 628.15 435.88 637.1 428.7 646.67 421.18 656.16 413.33 665.06 405.47 673.19 397.28 679.76 388.78 684.3 380.28 686.9 371.69 686.95 363.05 684.53 354.44 680.17 345.8 673.76 337.18 665.69 328.62 656.67 320.1 646.83 311.7 636.67 303.37 626.8 295.18 617.37 287.18 608.68 279.3 601.15 271.65 594.71 264.29 589.39 257.08 585.46 250.18 582.53 243.66 580.44 234.32 579.09 217.98 578.41 211.03 577.81 204.71 576.6 194.22 569.92 189.92 564.19 187.09 559.65 184.53 554.3 182.21 548.22 179.69 541.77 177.34 534.7 175.12 527.12 172.62 519.29 170.2 511.07 167.87 502.56 165.21 493.92 162.63 485.08 160.16 476.12 157.41 467.11 154.81 458.03 152.44 448.96 149.92 439.87 147.71 430.8 145.91 421.78 144.15 412.77 142.95 404 142.36 395.5 141.98 386.97 142.28 378.66 143.27 370.57 144.57 362.41 146.59 354.41 149.28 346.55 152.3 338.57 155.97 330.66 160.23 322.79 164.75 314.74 169.79 306.68 175.28 298.56 180.91 290.24 186.9 281.82 193.2 273.32 199.49 264.61 206.02 255.83 212.71 247.02 219.3 238.09 226.01 229.21 232.8 220.48 239.43 211.83 246.13 203.48 252.89 195.57 259.46 188.01 266.1 181.07 272.81 174.91 279.35 169.33 285.99 164.67 292.76 161.01 299.38 158.03 306.15 156.07 313.1 155.1 319.94 154.65 326.99 155 334.27 156.05 341.47 157.18 348.92 158.65 356.63 160.3 364.3 161.47 372.26 162.46 380.51 163.14 388.73 162.94 397.28 162.25 406.14 161.08" stroke-dasharray="11 2" transform="rotate(12.12, 400, 400)" opacity="0.20"></path><path d="M411.42 172.45C420.01 170.46 428.68 168.23 437.43 165.91 446.19 163.22 455.03 160.81 463.91 158.83 472.8 157.04 481.71 156.03 490.61 155.89 499.48 156.34 508.3 157.84 517 160.37 525.62 163.62 534.05 167.87 542.22 173.03 550.2 178.76 557.82 185.23 564.98 192.3 571.85 199.65 578.14 207.39 583.77 215.38 588.99 223.37 593.45 231.44 597.09 239.51 600.27 247.37 602.59 255.14 604.04 262.79 605.1 270.14 605.37 277.36 604.9 284.47 604.27 291.29 603.12 298.04 601.59 304.77 600.27 311.25 598.87 317.79 597.57 324.41 596.94 330.87 596.73 337.48 597.08 344.29 598.46 351 600.61 357.96 603.56 365.18 607.64 372.36 612.47 379.85 617.97 387.67 624.28 395.46 630.93 403.61 637.65 412.12 644.53 420.62 650.82 429.3 656.25 438.11 661.11 446.93 664.72 455.89 666.95 464.93 668.17 473.97 667.85 483.06 666.03 492.16 663.13 501.18 658.83 510.14 653.29 518.94 646.91 527.57 639.56 535.93 631.43 543.9 622.88 551.56 613.86 558.69 604.57 565.16 595.25 571.17 585.9 576.39 576.63 580.71 567.63 584.47 558.84 587.28 550.32 589.1 542.2 590.44 534.36 590.88 526.81 590.52 519.64 589.99 512.7 588.95 505.95 587.59 499.5 586.62 493.15 585.79 486.83 585.33 480.72 585.89 474.56 587.26 468.31 589.62 462.16 593.4 455.85 598.32 449.34 604.36 442.88 611.68 436.17 619.82 429.21 628.51 422.26 637.65 415.03 646.62 407.53 654.96 400.03 662.54 392.25 668.67 384.21 672.93 376.17 675.43 368.07 675.6 359.96 673.5 351.87 669.65 343.78 663.87 335.75 656.5 327.75 648.18 319.84 638.99 312.05 629.35 304.33 619.84 296.77 610.55 289.42 601.8 282.17 593.99 275.16 587.05 268.45 581.08 261.86 576.33 255.59 572.51 249.67 569.51 241.21 566.82 226.43 564.18 220.15 563.15 214.39 561.98 204.73 556.59 200.7 551.98 196.77 546.18 189.64 530.57 186.25 521.04 183.75 514.28 181.31 507.07 178.95 499.48 176.28 491.77 173.68 483.76 171.18 475.55 168.43 467.28 165.82 458.85 163.43 450.32 160.9 441.78 158.68 433.17 156.84 424.51 155.04 415.85 153.78 407.34 153.1 399.01 152.62 390.65 152.8 382.44 153.63 374.35 154.76 366.22 156.58 358.17 159.05 350.19 161.83 342.11 165.26 334.05 169.26 326 173.52 317.8 178.3 309.56 183.54 301.27 188.94 292.82 194.71 284.31 200.81 275.74 206.94 267.06 213.31 258.36 219.88 249.69 226.38 241.02 233.02 232.48 239.77 224.17 246.38 216.03 253.08 208.28 259.85 201.03 266.45 194.17 273.12 187.99 279.86 182.59 286.45 177.76 293.12 173.83 299.9 170.84 306.53 168.46 313.31 167.01 320.22 166.45 327.03 166.31 334.02 166.87 341.2 168.02 348.31 169.17 355.64 170.6 363.2 172.14 370.72 173.2 378.49 174.06 386.52 174.62 394.54 174.35 402.83 173.62 411.41 172.45" stroke-dasharray="7 7" transform="rotate(16.16, 400, 400)" opacity="0.66"></path><path d="M415.96 183.82C424.23 181.89 432.57 179.74 440.93 177.5 449.3 174.89 457.7 172.52 466.1 170.53 474.48 168.66 482.85 167.48 491.14 167.09 499.39 167.2 507.53 168.26 515.49 170.29 523.35 172.97 530.96 176.6 538.26 181.12 545.38 186.21 552.09 192.06 558.32 198.54 564.27 205.37 569.64 212.64 574.37 220.25 578.75 227.96 582.41 235.83 585.32 243.78 587.86 251.62 589.65 259.45 590.68 267.21 591.43 274.76 591.53 282.21 591.04 289.57 590.49 296.69 589.54 303.73 588.33 310.73 587.4 317.51 586.47 324.3 585.68 331.13 585.55 337.79 585.83 344.56 586.63 351.46 588.39 358.25 590.81 365.23 593.93 372.42 598.04 379.55 602.8 386.93 608.11 394.56 614.13 402.18 620.41 410.09 626.72 418.28 633.18 426.47 639.09 434.77 644.22 443.14 648.87 451.5 652.4 459.93 654.7 468.37 656.11 476.79 656.14 485.18 654.81 493.47 652.51 501.68 648.91 509.73 644.13 517.52 638.57 525.13 632.05 532.39 624.73 539.19 616.96 545.69 608.66 551.62 599.99 556.89 591.21 561.74 582.29 565.83 573.35 569.1 564.57 571.92 555.89 573.92 547.4 575.09 539.2 575.95 531.22 576.11 523.48 575.67 516.06 575.25 508.84 574.51 501.81 573.65 495.05 573.3 488.42 573.2 481.86 573.56 475.5 574.94 469.14 577.1 462.76 580.18 456.49 584.53 450.12 589.88 443.63 596.17 437.2 603.53 430.59 611.53 423.8 619.9 417.03 628.6 410.05 637.04 402.86 644.82 395.67 651.88 388.27 657.57 380.66 661.55 373.06 663.95 365.44 664.23 357.84 662.44 350.26 659.05 342.71 653.87 335.25 647.19 327.82 639.57 320.49 631.04 313.31 621.98 306.19 612.89 299.25 603.86 292.53 595.17 285.89 587.21 279.51 579.93 273.41 573.45 267.41 568.02 261.73 563.41 256.39 559.57 248.73 555.56 235.36 550.72 229.66 549 219.9 545.07 207.8 533.97 204.37 527.91 201.92 523.44 199.58 518.37 197.34 512.75 194.82 506.95 192.36 500.65 189.97 493.94 187.29 487.11 184.67 479.93 182.16 472.46 179.4 464.93 176.79 457.16 174.39 449.21 171.86 441.23 169.63 433.1 167.76 424.83 165.94 416.56 164.63 408.35 163.87 400.22 163.3 392.08 163.36 384 164.03 375.97 164.99 367.91 166.61 359.87 168.85 351.84 171.4 343.75 174.56 335.63 178.29 327.49 182.28 319.26 186.78 310.98 191.74 302.65 196.88 294.24 202.4 285.78 208.25 277.33 214.17 268.83 220.35 260.38 226.75 252.04 233.11 243.77 239.64 235.72 246.29 227.96 252.85 220.46 259.5 213.39 266.23 206.88 272.84 200.79 279.51 195.38 286.25 190.75 292.86 186.66 299.54 183.42 306.31 181.06 312.96 179.23 319.73 178.24 326.61 178.03 333.39 178.14 340.33 178.86 347.42 180.06 354.45 181.21 361.66 182.56 369.07 183.99 376.44 184.92 384.03 185.65 391.84 186.09 399.63 185.75 407.67 184.99 415.95 183.83" stroke-dasharray="6 6" transform="rotate(20.200000000000003, 400, 400)" opacity="0.08"></path><path d="M419.45 195.2C427.4 193.33 435.35 191.26 443.3 189.11 451.24 186.59 459.16 184.27 467.03 182.29 474.88 180.37 482.65 179.06 490.3 178.45 497.89 178.25 505.32 178.92 512.52 180.47 519.62 182.61 526.42 185.64 532.88 189.52 539.16 193.96 545.01 199.15 550.37 204.98 555.48 211.21 560.04 217.94 563.98 225.06 567.63 232.35 570.63 239.89 572.95 247.58 574.99 255.26 576.38 262.99 577.14 270.72 577.71 278.32 577.75 285.87 577.33 293.36 576.94 300.67 576.26 307.91 575.41 315.1 574.89 322.11 574.42 329.11 574.12 336.1 574.47 342.96 575.2 349.87 576.4 356.85 578.47 363.74 581.12 370.74 584.36 377.89 588.48 384.99 593.14 392.26 598.24 399.71 603.96 407.15 609.87 414.8 615.79 422.65 621.85 430.5 627.38 438.38 632.22 446.25 636.65 454.12 640.08 461.96 642.4 469.73 643.97 477.47 644.3 485.09 643.4 492.54 641.64 499.89 638.68 507 634.63 513.79 629.84 520.39 624.12 526.59 617.62 532.29 610.64 537.72 603.08 542.58 595.11 546.78 586.95 550.66 578.56 553.83 570.06 556.28 561.62 558.41 553.2 559.85 544.87 560.63 536.74 561.25 528.76 561.35 520.97 561.05 513.42 560.91 506.05 560.63 498.85 560.37 491.88 560.69 485.04 561.35 478.3 562.51 471.74 564.64 465.22 567.51 458.72 571.22 452.34 576.04 445.92 581.7 439.43 588.14 433.01 595.46 426.48 603.25 419.84 611.27 413.22 619.49 406.45 627.4 399.55 634.64 392.64 641.18 385.58 646.47 378.38 650.18 371.18 652.47 364.01 652.85 356.9 651.34 349.8 648.39 342.77 643.78 335.85 637.76 328.96 630.82 322.21 622.97 315.61 614.51 309.07 605.92 302.72 597.24 296.59 588.73 290.53 580.75 284.73 573.28 279.21 566.43 273.77 560.47 268.62 555.21 263.81 550.64 256.86 545.4 244.73 538.27 239.53 535.68 230.44 531.05 218.84 520.85 215.44 515.64 211.82 509.66 204.59 494.86 200.93 486.18 198.23 480.15 195.6 473.72 193.07 466.95 190.32 460.12 187.72 453 185.32 445.61 182.8 438.21 180.57 430.57 178.69 422.71 176.85 414.86 175.5 406.99 174.67 399.11 174.02 391.24 173.95 383.35 174.48 375.45 175.28 367.53 176.69 359.59 178.7 351.63 181.01 343.62 183.9 335.57 187.34 327.48 191.04 319.35 195.25 311.17 199.91 302.98 204.75 294.75 209.98 286.53 215.56 278.35 221.22 270.21 227.17 262.17 233.34 254.31 239.53 246.6 245.89 239.15 252.39 232.07 258.84 225.29 265.4 218.98 272.04 213.25 278.59 207.94 285.23 203.32 291.92 199.44 298.51 196.06 305.18 193.47 311.91 191.69 318.55 190.34 325.28 189.74 332.11 189.82 338.86 190.14 345.73 190.95 352.72 192.18 359.66 193.28 366.75 194.54 374 195.83 381.21 196.63 388.6 197.23 396.18 197.55 403.74 197.14 411.49 196.36 419.44 195.2" stroke-dasharray="3 7" transform="rotate(24.24, 400, 400)" opacity="0.12"></path><path d="M421.68 206.57C429.26 204.77 436.81 202.79 444.3 200.73 451.79 198.31 459.2 196.06 466.51 194.1 473.8 192.16 480.96 190.75 487.95 189.96 494.88 189.5 501.6 189.82 508.05 190.93 514.4 192.56 520.43 195.02 526.09 198.28 531.58 202.05 536.65 206.57 541.24 211.73 545.61 217.3 549.46 223.41 552.74 229.94 555.79 236.72 558.25 243.79 560.13 251.09 561.81 258.46 562.93 265.95 563.53 273.5 564.04 281 564.13 288.5 563.85 295.97 563.69 303.33 563.32 310.65 562.86 317.92 562.75 325.07 562.73 332.18 562.9 339.27 563.68 346.25 564.81 353.25 566.37 360.26 568.7 367.21 571.52 374.21 574.86 381.29 578.94 388.33 583.47 395.47 588.36 402.72 593.78 409.95 599.33 417.32 604.87 424.8 610.52 432.28 615.69 439.71 620.23 447.05 624.43 454.38 627.74 461.61 630.07 468.69 631.76 475.72 632.34 482.57 631.81 489.17 630.53 495.68 628.16 501.88 624.78 507.71 620.72 513.38 615.77 518.61 610.06 523.33 603.87 527.84 597.09 531.79 589.84 535.14 582.36 538.24 574.58 540.73 566.62 542.6 558.63 544.29 550.58 545.42 542.55 546.04 534.63 546.64 526.79 546.89 519.08 546.9 511.54 547.18 504.14 547.45 496.89 547.85 489.82 548.86 482.87 550.26 476.03 552.18 469.35 554.99 462.73 558.48 456.16 562.7 449.7 567.88 443.25 573.76 436.78 580.25 430.38 587.45 423.93 594.97 417.42 602.61 410.93 610.34 404.37 617.71 397.71 624.42 391.07 630.47 384.33 635.35 377.5 638.8 370.68 640.99 363.93 641.44 357.27 640.2 350.63 637.66 344.09 633.59 337.69 628.2 331.31 621.94 325.08 614.76 319.04 606.94 313.03 598.89 307.23 590.64 301.65 582.42 296.13 574.55 290.86 567.02 285.86 559.97 280.91 553.62 276.25 547.85 271.89 542.67 265.58 536.34 254.5 526.98 249.71 523.42 241.14 517.63 229.88 507.35 226.47 502.63 222.82 497.36 215.51 484.32 211.8 476.6 209.1 471.24 206.46 465.47 203.93 459.33 201.2 453.15 198.61 446.62 196.22 439.79 193.73 432.93 191.51 425.79 189.62 418.38 187.77 410.96 186.39 403.46 185.5 395.9 184.77 388.34 184.6 380.72 184.99 373.05 185.62 365.36 186.83 357.62 188.62 349.84 190.68 342.04 193.3 334.19 196.45 326.31 199.84 318.42 203.73 310.51 208.07 302.61 212.59 294.73 217.51 286.9 222.77 279.17 228.15 271.53 233.81 264.05 239.72 256.8 245.67 249.75 251.81 243.02 258.11 236.69 264.39 230.68 270.8 225.17 277.3 220.24 283.75 215.72 290.28 211.86 296.88 208.7 303.41 205.98 310 203.98 316.66 202.7 323.25 201.78 329.91 201.5 336.65 201.81 343.33 202.27 350.1 203.15 356.97 204.35 363.8 205.38 370.74 206.53 377.8 207.67 384.84 208.33 392.02 208.8 399.33 209.01 406.63 208.53 414.08 207.72 421.67 206.58" stroke-dasharray="2 9" transform="rotate(28.28, 400, 400)" opacity="0.73"></path><path d="M422.49 217.95C429.69 216.21 436.81 214.32 443.83 212.36 450.83 210.06 457.72 207.89 464.47 205.97 471.18 204.04 477.73 202.56 484.07 201.62 493.36 200.95 510.42 203.79 518.01 207.42 522.8 210.55 527.18 214.39 531.09 218.87 534.84 223.75 538.09 229.18 540.84 235.07 543.42 241.23 545.49 247.75 547.05 254.54 548.49 261.46 549.47 268.56 550.02 275.78 550.56 283.02 550.77 290.31 550.71 297.62 550.81 304.88 550.79 312.13 550.72 319.35 551.01 326.49 551.42 333.6 552.02 340.68 553.19 347.69 554.67 354.68 556.53 361.66 559.07 368.58 562.02 375.52 565.4 382.48 569.43 389.41 573.81 396.38 578.47 403.39 583.58 410.38 588.78 417.43 593.94 424.52 599.2 431.61 604.01 438.56 608.26 445.36 612.23 452.14 615.4 458.75 617.72 465.14 619.87 474.54 618.28 491.8 614.58 499.47 611.2 504.32 606.99 508.72 602.03 512.64 596.62 516.4 590.61 519.64 584.11 522.36 577.35 524.91 570.24 526.95 562.88 528.49 555.44 529.95 547.87 530.99 540.24 531.66 532.67 532.43 525.1 532.99 517.6 533.43 510.21 534.22 502.92 535.1 495.73 536.18 488.68 537.88 481.73 539.98 474.89 542.57 468.17 545.97 461.53 549.97 454.96 554.59 448.48 560.02 442.04 566.01 435.62 572.47 429.27 579.47 422.9 586.68 416.53 593.9 410.19 601.14 403.81 607.98 397.41 614.16 391.01 619.73 384.57 624.23 378.09 627.43 371.61 629.51 365.25 630.03 359.02 629.02 352.8 626.85 346.72 623.29 340.79 618.51 334.88 612.9 329.14 606.4 323.6 599.23 318.08 591.77 312.77 584.01 307.69 576.16 302.64 568.52 297.84 561.08 293.3 553.96 288.79 547.38 284.54 541.26 280.58 535.62 274.8 528.4 264.58 516.99 260.11 512.45 251.92 505.18 240.85 494.04 237.41 489.52 233.73 484.63 226.33 472.78 222.59 465.8 219.88 460.97 217.25 455.74 214.72 450.14 212.02 444.51 209.45 438.52 207.08 432.19 204.63 425.85 202.43 419.2 200.55 412.24 198.7 405.28 197.3 398.19 196.36 391 195.57 383.81 195.29 376.53 195.54 369.17 196.02 361.82 197.04 354.39 198.6 346.92 200.41 339.45 202.76 331.93 205.6 324.41 208.69 316.9 212.25 309.41 216.24 301.96 220.43 294.58 225.01 287.29 229.93 280.14 234.98 273.12 240.32 266.31 245.92 259.79 251.58 253.48 257.46 247.52 263.5 242 269.55 236.79 275.75 232.08 282.05 227.94 288.33 224.18 294.7 221.03 301.15 218.54 307.55 216.42 314.02 214.94 320.55 214.09 327.03 213.52 333.57 213.5 340.18 213.97 346.74 214.52 353.38 215.41 360.09 216.55 366.76 217.49 373.53 218.5 380.37 219.49 387.2 220.01 394.13 220.35 401.15 220.44 408.17 219.91 415.28 219.08 422.48 217.95" stroke-dasharray="10 2" transform="rotate(32.32, 400, 400)" opacity="0.83"></path><path d="M421.84 229.32C428.64 227.66 435.3 225.87 441.83 224.01 448.35 221.82 454.71 219.76 460.89 217.9 470.01 215.23 487.05 212.45 494.83 212.7 502.17 214.15 514.87 221.09 520.12 226.48 524.75 233.02 531.61 249 533.88 258.13 535.19 264.49 536.13 271.08 536.73 277.84 537.37 284.67 537.76 291.61 537.96 298.6 538.36 305.61 538.68 312.64 539 319.66 539.69 326.65 540.49 333.62 541.48 340.56 542.98 347.47 544.77 354.34 546.87 361.18 549.57 368 552.61 374.79 555.99 381.55 559.93 388.3 564.14 395.04 568.57 401.76 573.37 408.47 578.23 415.17 583.01 421.84 587.89 428.5 592.36 434.97 596.31 441.23 600.04 447.47 603.07 453.48 605.33 459.23 607.61 467.65 606.97 482.81 604.06 489.42 599.53 495.46 586.24 505.22 577.87 508.89 571.84 511.11 565.43 512.92 558.74 514.34 551.92 515.78 544.91 516.92 537.79 517.82 530.65 518.89 523.47 519.87 516.3 520.83 509.19 522.18 502.12 523.68 495.11 525.43 488.21 527.76 481.38 530.49 474.63 533.67 467.99 537.55 461.41 541.95 454.91 546.86 448.49 552.43 442.12 558.43 435.81 564.77 429.54 571.52 423.3 578.37 417.09 585.14 410.91 591.87 404.73 598.18 398.56 603.86 392.41 608.97 386.25 613.1 380.1 616.05 373.95 618.02 367.95 618.6 362.12 617.8 356.28 615.98 350.61 612.9 345.12 608.69 339.63 603.71 334.33 597.88 329.23 591.37 324.15 584.52 319.27 577.31 314.63 569.91 310 562.61 305.6 555.37 301.45 548.32 297.31 541.67 293.42 535.35 289.78 529.41 284.43 521.49 274.89 508.34 270.66 502.88 262.73 494.01 251.74 481.45 248.25 476.87 244.53 472.08 237.05 460.91 233.28 454.44 229.28 447.59 221.52 432.08 217.92 423.46 215.5 417.59 213.34 411.4 211.47 404.9 209.64 398.4 208.23 391.75 207.25 384.98 206.4 378.22 206.03 371.35 206.15 364.4 206.48 357.47 207.32 350.46 208.66 343.41 210.23 336.38 212.3 329.33 214.84 322.29 217.62 315.3 220.84 308.35 224.48 301.49 228.31 294.72 232.53 288.08 237.08 281.62 241.77 275.32 246.76 269.26 252.01 263.52 257.34 258 262.89 252.85 268.62 248.14 274.39 243.72 280.32 239.79 286.36 236.41 292.41 233.35 298.56 230.86 304.79 228.96 310.99 227.36 317.28 226.32 323.62 225.83 329.93 225.54 336.3 225.7 342.72 226.28 349.11 226.87 355.56 227.72 362.06 228.78 368.54 229.61 375.08 230.47 381.67 231.29 388.26 231.67 394.9 231.88 401.6 231.87 408.29 231.28 415.04 230.43 421.83 229.32" stroke-dasharray="8 8" transform="rotate(36.36, 400, 400)" opacity="0.36"></path><path d="M419.77 240.7C426.14 239.11 432.34 237.42 438.38 235.67 444.4 233.61 450.25 231.65 455.88 229.87 467.07 226.16 477.32 224.07 486.39 223.99 495.19 225.09 502.64 228.69 508.58 234.62 514.15 241.95 518.22 251.26 520.81 262.07 523.37 273.68 524.89 286.22 525.69 299.25 527.33 312.49 529.06 325.91 531.28 339.25 535.32 352.57 540.43 365.8 546.62 378.78 550.44 385.27 554.47 391.71 558.65 398.09 563.14 404.47 567.66 410.78 572.08 417.01 576.59 423.24 580.72 429.23 584.39 434.97 587.87 440.7 590.74 446.16 592.94 451.33 596.15 461.58 596.22 470.55 593.22 478.05 588.36 485.31 580.79 491.04 571.06 495.26 560.24 499.44 548.02 502.5 535 504.8 521.76 508.01 508.25 511.43 494.8 515.62 481.57 521.97 468.52 529.88 455.78 539.45 443.28 551.12 430.97 563.75 418.9 576.32 412.91 582.54 406.95 588.34 401.03 593.52 395.12 598.19 389.24 601.96 383.41 604.68 374.74 606.85 358.3 603.72 350.55 598.73 340.33 589.39 330.89 577.25 322.34 563.6 313.79 549.93 306.11 536.46 299.36 523.91 292.51 513.01 286.49 503.35 281.26 494.78 275.69 487.75 270.68 481.18 266.19 474.64 261.03 468.81 256.15 462.35 251.54 455 246.12 447.77 240.93 439.37 236.12 429.75 233.5 424.92 231.02 419.78 228.72 414.34 226.36 408.88 224.24 403.13 222.4 397.08 220.6 391.03 219.18 384.84 218.16 378.54 217.27 372.24 216.82 365.85 216.83 359.38 217.4 346.51 219.9 333.45 224.19 320.5 229.31 307.81 236.09 295.49 244.27 283.94 253.02 273.04 262.89 263.32 273.57 255.21 284.48 248.15 296 242.99 307.89 239.94 319.78 237.8 331.98 237.47 344.34 238.7 356.64 239.75 369.15 241.37 381.74 243.07 388.03 243.3 394.36 243.39 400.7 243.28 407.04 242.64 413.4 241.78 419.76 240.7" stroke-dasharray="7 1" transform="rotate(40.400000000000006, 400, 400)" opacity="0.08"></path><path d="M416.42 252.07C428.25 248.65 439.37 245.1 449.63 241.88 459.8 238.28 468.99 236.06 477.04 235.57 484.88 235.98 491.46 238.61 496.7 243.35 501.72 249.32 505.46 257.21 508.01 266.59 510.68 276.8 512.56 288.06 513.93 299.94 516.17 312.15 518.55 324.67 521.39 337.22 525.83 349.83 531.14 362.36 537.29 374.64 544.99 386.92 553.14 398.95 561.16 410.52 569.44 422.09 576.06 432.61 580.53 441.97 583.79 451.25 584.29 459.28 582.09 465.98 578.29 472.56 571.99 477.85 563.67 481.94 554.28 486.23 543.46 489.74 531.72 492.84 519.65 496.95 507.12 501.45 494.5 506.76 481.96 513.97 469.49 522.5 457.26 532.32 445.19 543.76 433.3 555.76 421.7 567.44 410.19 578.63 398.85 587.63 387.79 593.3 376.73 596 366.42 594.3 356.9 588.64 347.35 580.49 338.58 569.65 330.66 557.18 322.68 544.4 315.52 531.45 309.18 519.01 302.69 507.78 296.91 497.48 291.81 488.14 286.35 480.12 281.36 472.63 276.8 465.36 271.62 458.83 266.68 451.97 262 444.53 256.61 437.3 251.46 429.17 246.71 420.05 241.49 410.94 236.93 400.76 233.33 389.55 229.85 378.34 227.91 366.67 227.56 354.8 227.86 343.01 229.92 331.16 233.65 319.54 238.13 308.21 244.18 297.37 251.56 287.39 259.51 278.04 268.56 269.89 278.43 263.29 288.59 257.58 299.38 253.58 310.58 251.43 321.85 249.93 333.44 249.93 345.17 251.2 356.91 252.12 368.79 253.46 380.7 254.81 392.62 254.59 404.57 253.7 416.41 252.07" stroke-dasharray="11 6" transform="rotate(44.44, 400, 400)" opacity="0.92"></path><path d="M411.99 263.45C422.93 260.23 433.1 256.93 442.4 253.93 451.62 250.48 459.88 248.21 467.07 247.39 474.11 247.25 480.02 249.04 484.76 252.7 489.41 257.41 493 263.9 495.63 271.85 498.5 280.6 500.79 290.46 502.73 301.04 505.51 312.02 508.46 323.43 511.81 334.96 516.54 346.63 521.95 358.28 527.98 369.69 535.29 381.15 542.87 392.31 550.23 402.99 557.82 413.67 563.91 423.31 568.13 431.84 571.37 440.32 572.21 447.66 570.68 453.85 567.81 460.04 562.68 465.19 555.67 469.44 547.67 474.04 538.25 478.16 527.83 482.13 517.01 487.12 505.61 492.58 493.97 498.82 482.3 506.66 470.58 515.57 459.01 525.41 447.54 536.45 436.22 547.73 425.18 558.48 414.2 568.65 403.43 576.79 392.97 581.93 382.52 584.51 372.82 583.22 363.91 578.42 354.96 571.39 346.77 561.82 339.36 550.59 331.86 538.84 325.1 526.62 319.07 514.57 312.85 503.32 307.24 492.71 302.22 482.87 296.81 474.1 291.81 465.85 287.19 457.95 281.99 450.73 277.02 443.41 272.31 435.77 266.97 428.39 261.9 420.38 257.24 411.64 252.19 402.94 247.77 393.4 244.26 383.04 240.86 372.68 238.88 362.02 238.37 351.29 238.4 340.65 240.06 330.08 243.24 319.86 247.1 309.93 252.42 300.6 259 292.18 266.11 284.31 274.3 277.62 283.31 272.39 292.64 267.84 302.61 264.82 313.01 263.39 323.53 262.35 334.39 262.54 345.39 263.74 356.44 264.48 367.61 265.51 378.75 266.51 389.92 266.07 401.05 265.06 411.99 263.45" stroke-dasharray="7 5" transform="rotate(48.48, 400, 400)" opacity="0.87"></path><path d="M406.78 274.82C416.81 271.82 426.08 268.78 434.5 266.01 442.87 262.77 450.33 260.5 456.8 259.46 465.9 259.43 479.22 268.85 483.82 278.01 486.94 285.31 489.64 293.72 492.1 302.92 495.36 312.54 498.78 322.68 502.52 333.05 507.43 343.59 512.85 354.2 518.7 364.63 525.57 375.13 532.58 385.37 539.3 395.17 546.22 404.97 551.79 413.82 555.72 421.68 558.89 429.52 559.99 436.39 559.02 442.31 556.94 448.32 552.86 453.55 547.05 458.16 540.36 463.18 532.29 467.97 523.21 472.78 513.69 478.54 503.49 484.8 492.94 491.74 482.29 499.97 471.48 509.01 460.71 518.67 449.99 529.16 439.36 539.65 428.96 549.45 418.6 558.62 408.45 565.92 398.61 570.56 388.77 573.01 379.66 572.08 371.3 568.07 362.89 562.09 355.19 553.76 348.2 543.78 341.11 533.15 334.67 521.84 328.87 510.42 322.86 499.46 317.37 488.86 312.38 478.82 307.02 469.59 302 460.83 297.32 452.43 292.13 444.65 287.15 436.9 282.44 429.05 277.2 421.48 272.23 413.52 267.7 405.09 262.83 396.71 258.58 387.74 255.19 378.19 251.89 368.64 249.89 358.99 249.24 349.41 249.05 339.92 250.33 330.65 253 321.83 256.25 313.27 260.86 305.38 266.63 298.42 272.91 291.91 280.21 286.53 288.31 282.46 296.74 278.89 305.82 276.65 315.34 275.72 325.02 274.99 335.03 275.25 345.21 276.29 355.46 276.8 365.82 277.5 376.13 278.16 386.48 277.52 396.75 276.41 406.78 274.82" stroke-dasharray="10 10" transform="rotate(52.52, 400, 400)" opacity="0.96"></path><path d="M401.13 286.19C410.27 283.42 418.69 280.64 426.32 278.11 433.91 275.1 440.68 272.91 446.59 271.74 454.98 271.11 467.83 277.87 472.69 285.17 476.07 291.08 479.16 298.07 482.08 305.87 485.71 314.08 489.49 322.87 493.51 331.99 498.49 341.29 503.83 350.75 509.43 360.14 515.84 369.59 522.28 378.88 528.37 387.83 534.63 396.77 539.7 404.92 543.33 412.24 546.37 419.58 547.64 426.14 547.13 431.97 545.72 437.95 542.55 443.39 537.83 448.43 532.35 453.9 525.56 459.32 517.77 464.86 509.55 471.23 500.61 478.06 491.22 485.43 481.68 493.81 471.88 502.75 462.03 512.04 452.18 521.86 442.34 531.48 432.67 540.32 423.03 548.53 413.55 555.03 404.34 559.18 395.13 561.5 386.59 560.89 378.74 557.58 370.84 552.59 363.57 545.44 356.94 536.71 350.2 527.26 344.02 516.99 338.39 506.4 332.55 496 327.15 485.72 322.18 475.79 316.87 466.42 311.86 457.41 307.15 448.76 301.99 440.6 297.06 432.56 292.39 424.58 287.28 416.85 282.46 408.93 278.08 400.79 273.43 392.7 269.37 384.26 266.11 375.48 262.94 366.7 260.95 358.01 260.18 349.56 259.79 341.17 260.73 333.14 262.91 325.65 265.6 318.37 269.52 311.8 274.51 306.14 279.95 300.82 286.36 296.54 293.54 293.42 301.03 290.62 309.16 288.94 317.74 288.35 326.49 287.77 335.6 287.98 344.87 288.8 354.24 289.04 363.71 289.43 373.14 289.76 382.61 288.94 392 287.75 401.13 286.19" stroke-dasharray="3 6" transform="rotate(56.56, 400, 400)" opacity="0.39"></path><path d="M395.41 297.57C403.67 295.01 411.29 292.51 418.2 290.23 428.19 286.45 444.59 283.17 451.09 284.5 457.19 287.75 467.65 300.87 472.65 310.16 476.56 316.97 480.58 324.41 484.75 332.25 489.69 340.27 494.87 348.53 500.16 356.85 506.1 365.22 511.96 373.55 517.45 381.67 523.07 389.79 527.63 397.31 530.95 404.19 533.83 411.11 535.19 417.46 535.03 423.31 534.18 429.31 531.79 434.99 528.02 440.45 523.63 446.32 518.03 452.24 511.47 458.32 504.51 465.09 496.81 472.24 488.61 479.79 480.23 488.08 471.52 496.71 462.66 505.46 453.77 514.52 444.81 523.22 435.95 531.11 427.09 538.38 418.33 544.12 409.78 547.81 401.23 549.98 393.27 549.63 385.9 546.96 378.49 542.87 371.63 536.84 365.31 529.33 358.89 521.1 352.95 511.97 347.47 502.36 341.8 492.75 336.49 483.05 331.55 473.52 326.32 464.33 321.34 455.38 316.64 446.72 311.57 438.43 306.72 430.3 302.15 422.33 297.22 414.55 292.59 406.76 288.39 398.92 283.99 391.14 280.14 383.21 277.04 375.17 274.01 367.12 272.06 359.35 271.19 351.95 270.64 344.59 271.27 337.69 273.01 331.4 275.18 325.25 278.44 319.83 282.69 315.27 287.32 310.94 292.84 307.54 299.09 305.14 305.63 302.9 312.79 301.59 320.4 301.16 328.18 300.62 336.31 300.69 344.64 301.24 353.05 301.2 361.6 301.27 370.11 301.3 378.67 300.32 387.15 299.07 395.41 297.57" stroke-dasharray="2 7" transform="rotate(60.599999999999994, 400, 400)" opacity="0.92"></path><path d="M389.99 308.94C397.4 306.61 404.26 304.37 410.54 302.36 419.64 298.96 434.97 295.56 441.32 296.25 447.42 298.44 458.43 308.45 463.81 315.91 467.87 321.43 472.01 327.58 476.22 334.19 481.03 340.95 485.97 348.04 490.91 355.29 496.34 362.6 501.62 369.98 506.52 377.32 511.53 384.65 515.6 391.58 518.6 398.08 521.27 404.62 522.67 410.81 522.77 416.67 522.35 422.69 520.61 428.56 517.67 434.33 514.23 440.46 509.7 446.69 504.28 453.1 498.51 460.02 492.01 467.24 484.97 474.71 477.77 482.68 470.17 490.82 462.35 498.89 454.47 507.09 446.46 514.86 438.45 521.8 430.44 528.17 422.45 533.18 414.59 536.43 406.73 538.44 399.35 538.32 392.47 536.22 385.55 532.94 379.09 527.95 373.08 521.61 366.98 514.59 361.27 506.65 355.95 498.14 350.46 489.49 345.28 480.61 340.41 471.72 335.29 463.01 330.4 454.41 325.77 446.02 320.84 437.88 316.14 429.89 311.71 422.1 307 414.46 302.61 406.9 298.63 399.44 294.5 392.03 290.89 384.62 287.97 377.29 285.11 369.95 283.21 363.02 282.28 356.56 281.78 347.18 286.32 331.55 291.18 325.63 297.38 320.7 313.76 315.01 323.48 314.04 330.27 313.44 337.41 313.31 344.76 313.55 352.2 313.24 359.78 313.01 367.37 312.77 374.99 311.67 382.57 310.38 389.99 308.94" stroke-dasharray="1 2" transform="rotate(64.64, 400, 400)" opacity="0.92"></path><path d="M385.21 320.32C391.81 318.22 397.96 316.25 403.64 314.49 411.94 311.5 426.32 308.23 432.53 308.49 438.6 309.87 449.94 317.34 455.52 323.21 459.62 327.57 463.75 332.56 467.88 338.03 472.48 343.61 477.1 349.59 481.65 355.84 486.55 362.12 491.27 368.59 495.6 375.17 500.01 381.75 503.59 388.12 506.26 394.25 508.71 400.41 510.07 406.4 510.36 412.22 510.26 418.18 509.05 424.11 506.81 430.03 504.18 436.23 500.6 442.56 496.2 449.02 491.52 455.85 486.14 462.89 480.23 470.03 474.15 477.49 467.66 484.97 460.88 492.26 454.05 499.55 447.01 506.37 439.89 512.38 432.76 517.9 425.58 522.23 418.45 525.06 411.31 526.9 404.54 526.96 398.17 525.35 391.77 522.79 385.72 518.76 380.04 513.53 374.29 507.67 368.84 500.93 363.71 493.59 358.45 486.03 353.43 478.12 348.69 470.1 343.74 462.11 339.01 454.13 334.52 446.27 329.8 438.55 325.29 430.95 321.07 423.54 316.64 416.24 312.51 409.06 308.8 402.07 304.97 395.12 301.62 388.28 298.9 381.64 295.32 371.91 292.73 355.07 293.79 348.11 296.11 341.86 305.13 332.82 311.55 330.07 318.87 327.9 336.03 325.97 345.48 325.71 351.94 325.14 358.56 324.64 365.22 324.17 371.92 322.98 378.62 321.68 385.21 320.32" stroke-dasharray="4 7" transform="rotate(68.68, 400, 400)" opacity="0.24"></path><path d="M381.4 331.69C393.01 327.42 403.34 324.13 412.2 322.39 421.24 320.24 429.27 320.84 436.38 324.23 444.36 328.21 452.18 334.96 459.72 343.82 468.61 353 477.26 363.76 484.67 375.47 492.34 387.17 496.81 398.73 497.84 409.96 497.79 421.61 494.05 433.64 487.29 445.9 479.63 459.1 469.58 472.69 458.14 485.52 446.46 498.05 433.87 508.11 421.11 513.68 408.34 516.19 396.57 512.9 386.01 505.05 375.22 495.09 365.27 482.28 356.34 468.34 346.82 454.21 337.97 439.85 330.23 426.16 321.91 412.69 314.83 399.71 309.82 387.78 304.99 375.85 303.28 365.99 304.49 358.44 306.48 350.9 311.4 345.69 318.61 342.84 326.48 339.6 336.23 338.02 347.02 337.68 358.07 335.6 369.79 333.62 381.4 331.69" stroke-dasharray="3 2" transform="rotate(72.72, 400, 400)" opacity="0.84"></path><path d="M378.8 343.07C388.89 339.37 398.14 336.65 406.34 335.25 414.72 333.35 422.43 333.66 429.43 336.23 437.12 339.08 444.62 344.29 451.71 351.48 459.75 358.84 467.37 367.88 473.74 378.16 480.31 388.44 484.19 399.05 485.24 409.68 485.57 420.6 482.86 431.98 477.58 443.47 471.65 455.48 463.56 467.55 454.05 478.63 444.34 489.25 433.59 497.65 422.39 502.31 411.19 504.65 400.59 502.29 390.89 496.16 381.02 488.33 371.76 477.87 363.36 466.16 354.54 454.07 346.35 441.5 339.2 429.35 331.66 417.29 325.28 405.67 320.75 395.12 316.36 384.57 314.64 375.98 315.39 369.46 316.71 362.88 320.51 358.24 326.3 355.49 332.57 352.26 340.54 350.33 349.56 349.41 358.76 347.06 368.71 344.92 378.8 343.07" stroke-dasharray="4 11" transform="rotate(76.76, 400, 400)" opacity="0.16"></path><path d="M377.58 354.44C386.2 351.32 394.35 349.14 401.82 348.11 409.43 346.57 416.62 346.78 423.28 348.8 430.43 350.89 437.37 354.93 443.82 360.73 450.89 366.61 457.45 374.11 462.81 382.99 468.32 391.87 471.6 401.35 472.59 411.03 473.13 420.89 471.22 431.19 467.19 441.46 462.71 451.96 456.36 462.28 448.64 471.53 440.77 480.28 431.81 487.13 422.21 490.93 412.61 493.06 403.31 491.48 394.6 486.86 385.8 480.94 377.41 472.74 369.73 463.28 361.79 453.4 354.4 442.87 347.98 432.52 341.31 422.15 335.69 412.09 331.68 402.94 327.77 393.78 326.11 386.33 326.5 380.62 328.69 372.67 342.66 363.39 353.19 360.88 360.67 358.37 368.95 356.19 377.58 354.44" stroke-dasharray="6 8" transform="rotate(80.80000000000001, 400, 400)" opacity="0.35"></path><path d="M377.82 365.82C385.01 363.26 392.01 361.6 398.61 360.92 405.31 359.8 411.78 360.05 417.84 361.73 424.22 363.34 430.37 366.53 436.01 371.2 442.02 375.88 447.49 382.02 451.89 389.49 456.37 396.96 459.05 405.11 459.92 413.53 460.53 422.03 459.22 430.88 456.21 439.59 452.92 448.34 448.07 456.78 441.99 464.18 435.8 471.14 428.56 476.54 420.59 479.56 412.62 481.43 404.71 480.46 397.17 477.14 389.57 472.9 382.25 466.77 375.48 459.49 368.57 451.82 362.14 443.44 356.57 435.02 350.86 426.54 346.05 418.18 342.61 410.47 338.46 399.56 339.19 384.24 343.64 379.43 347.27 376.21 352.17 373.76 358.01 372.05 363.92 369.53 370.62 367.4 377.82 365.82" stroke-dasharray="1 0" transform="rotate(84.84, 400, 400)" opacity="0.99"></path><path d="M379.5 377.19C391.05 372.59 402.77 371.71 413.01 374.75 423.97 377.36 434.19 384.92 440.96 397.02 447.96 409.11 449.01 423.7 444.78 437.55 439.95 451.21 430.29 462.94 417.63 468.19 404.96 470.55 391.88 464.85 380.66 454.6 369.16 443.2 359.2 429.43 353.54 416.97 348.06 404.51 348.4 395.55 353.29 390.28 358.6 383.84 367.94 379.26 379.5 377.19" stroke-dasharray="8 8" transform="rotate(88.88, 400, 400)" opacity="0.12"></path><path d="M382.51 388.56C391.24 385.27 400.48 385 408.67 387.61 417.21 389.84 425.03 395.66 430.03 404.84 435.16 414.01 435.98 424.95 433.02 435.07 429.78 444.92 422.93 453.18 413.52 456.81 404.11 458.84 394.07 455.35 385.33 448.5 376.5 440.94 368.85 431.22 364.46 421.82 360.19 412.4 360.18 405.02 363.55 400.13 367.1 394.54 373.78 390.4 382.51 388.56" stroke-dasharray="0 2" transform="rotate(92.92, 400, 400)" opacity="0.72"></path><path d="M386.67 399.94C398.43 395.18 412.66 399.8 419.1 412.18 425.77 424.55 420.93 440.35 408.53 445.44 396.12 447.73 381.39 437.12 375.39 424.52 369.59 411.91 374.89 402.08 386.67 399.94" stroke-dasharray="2 6" transform="rotate(96.96, 400, 400)" opacity="0.76"></path></g></svg>