<svg xmlns="http://www.w3.org/2000/svg" version="1.1" xmlns:xlink="http://www.w3.org/1999/xlink" xmlns:svgjs="http://svgjs.dev/svgjs" viewBox="0 0 1422 800"><defs><linearGradient x1="50%" y1="0%" x2="50%" y2="100%" id="oooscillate-grad"><stop stop-color="#0072F5" stop-opacity="1" offset="0%"></stop><stop stop-color="#5EA2EF" stop-opacity="1" offset="100%"></stop></linearGradient></defs><g stroke-width="2" stroke="url(#oooscillate-grad)" fill="none" stroke-linecap="round"><path d="M 0 910 Q 355.5 400 711 400 Q 1066.5 400 1422 910" opacity="0.05"></path><path d="M 0 875 Q 355.5 400 711 400 Q 1066.5 400 1422 875" opacity="0.09"></path><path d="M 0 840 Q 355.5 400 711 400 Q 1066.5 400 1422 840" opacity="0.13"></path><path d="M 0 805 Q 355.5 400 711 400 Q 1066.5 400 1422 805" opacity="0.16"></path><path d="M 0 770 Q 355.5 400 711 400 Q 1066.5 400 1422 770" opacity="0.20"></path><path d="M 0 735 Q 355.5 400 711 400 Q 1066.5 400 1422 735" opacity="0.24"></path><path d="M 0 700 Q 355.5 400 711 400 Q 1066.5 400 1422 700" opacity="0.28"></path><path d="M 0 665 Q 355.5 400 711 400 Q 1066.5 400 1422 665" opacity="0.32"></path><path d="M 0 630 Q 355.5 400 711 400 Q 1066.5 400 1422 630" opacity="0.35"></path><path d="M 0 595 Q 355.5 400 711 400 Q 1066.5 400 1422 595" opacity="0.39"></path><path d="M 0 560 Q 355.5 400 711 400 Q 1066.5 400 1422 560" opacity="0.43"></path><path d="M 0 525 Q 355.5 400 711 400 Q 1066.5 400 1422 525" opacity="0.47"></path><path d="M 0 490 Q 355.5 400 711 400 Q 1066.5 400 1422 490" opacity="0.51"></path><path d="M 0 455 Q 355.5 400 711 400 Q 1066.5 400 1422 455" opacity="0.54"></path><path d="M 0 420 Q 355.5 400 711 400 Q 1066.5 400 1422 420" opacity="0.58"></path><path d="M 0 385 Q 355.5 400 711 400 Q 1066.5 400 1422 385" opacity="0.62"></path><path d="M 0 350 Q 355.5 400 711 400 Q 1066.5 400 1422 350" opacity="0.66"></path><path d="M 0 315 Q 355.5 400 711 400 Q 1066.5 400 1422 315" opacity="0.70"></path><path d="M 0 280 Q 355.5 400 711 400 Q 1066.5 400 1422 280" opacity="0.73"></path><path d="M 0 245 Q 355.5 400 711 400 Q 1066.5 400 1422 245" opacity="0.77"></path><path d="M 0 210 Q 355.5 400 711 400 Q 1066.5 400 1422 210" opacity="0.81"></path><path d="M 0 175 Q 355.5 400 711 400 Q 1066.5 400 1422 175" opacity="0.85"></path><path d="M 0 140 Q 355.5 400 711 400 Q 1066.5 400 1422 140" opacity="0.89"></path><path d="M 0 105 Q 355.5 400 711 400 Q 1066.5 400 1422 105" opacity="0.92"></path><path d="M 0 70 Q 355.5 400 711 400 Q 1066.5 400 1422 70" opacity="0.96"></path></g></svg>