<svg xmlns="http://www.w3.org/2000/svg" version="1.1" xmlns:xlink="http://www.w3.org/1999/xlink" xmlns:svgjs="http://svgjs.dev/svgjs" viewBox="0 0 1422 800"><defs><linearGradient x1="50%" y1="0%" x2="50%" y2="100%" id="oooscillate-grad"><stop stop-color="#5EA2EF" stop-opacity="1" offset="0%"></stop><stop stop-color="#0072F5" stop-opacity="1" offset="100%"></stop></linearGradient></defs><g stroke-width="2" stroke="url(#oooscillate-grad)" fill="none" stroke-linecap="round"><path d="M 0 1369 Q 355.5 -100 711 400 Q 1066.5 900 1422 1369" opacity="0.05"></path><path d="M 0 1332 Q 355.5 -100 711 400 Q 1066.5 900 1422 1332" opacity="0.08"></path><path d="M 0 1295 Q 355.5 -100 711 400 Q 1066.5 900 1422 1295" opacity="0.10"></path><path d="M 0 1258 Q 355.5 -100 711 400 Q 1066.5 900 1422 1258" opacity="0.13"></path><path d="M 0 1221 Q 355.5 -100 711 400 Q 1066.5 900 1422 1221" opacity="0.16"></path><path d="M 0 1184 Q 355.5 -100 711 400 Q 1066.5 900 1422 1184" opacity="0.18"></path><path d="M 0 1147 Q 355.5 -100 711 400 Q 1066.5 900 1422 1147" opacity="0.21"></path><path d="M 0 1110 Q 355.5 -100 711 400 Q 1066.5 900 1422 1110" opacity="0.23"></path><path d="M 0 1073 Q 355.5 -100 711 400 Q 1066.5 900 1422 1073" opacity="0.26"></path><path d="M 0 1036 Q 355.5 -100 711 400 Q 1066.5 900 1422 1036" opacity="0.29"></path><path d="M 0 999 Q 355.5 -100 711 400 Q 1066.5 900 1422 999" opacity="0.31"></path><path d="M 0 962 Q 355.5 -100 711 400 Q 1066.5 900 1422 962" opacity="0.34"></path><path d="M 0 925 Q 355.5 -100 711 400 Q 1066.5 900 1422 925" opacity="0.37"></path><path d="M 0 888 Q 355.5 -100 711 400 Q 1066.5 900 1422 888" opacity="0.39"></path><path d="M 0 851 Q 355.5 -100 711 400 Q 1066.5 900 1422 851" opacity="0.42"></path><path d="M 0 814 Q 355.5 -100 711 400 Q 1066.5 900 1422 814" opacity="0.45"></path><path d="M 0 777 Q 355.5 -100 711 400 Q 1066.5 900 1422 777" opacity="0.47"></path><path d="M 0 740 Q 355.5 -100 711 400 Q 1066.5 900 1422 740" opacity="0.50"></path><path d="M 0 703 Q 355.5 -100 711 400 Q 1066.5 900 1422 703" opacity="0.53"></path><path d="M 0 666 Q 355.5 -100 711 400 Q 1066.5 900 1422 666" opacity="0.55"></path><path d="M 0 629 Q 355.5 -100 711 400 Q 1066.5 900 1422 629" opacity="0.58"></path><path d="M 0 592 Q 355.5 -100 711 400 Q 1066.5 900 1422 592" opacity="0.60"></path><path d="M 0 555 Q 355.5 -100 711 400 Q 1066.5 900 1422 555" opacity="0.63"></path><path d="M 0 518 Q 355.5 -100 711 400 Q 1066.5 900 1422 518" opacity="0.66"></path><path d="M 0 481 Q 355.5 -100 711 400 Q 1066.5 900 1422 481" opacity="0.68"></path><path d="M 0 444 Q 355.5 -100 711 400 Q 1066.5 900 1422 444" opacity="0.71"></path><path d="M 0 407 Q 355.5 -100 711 400 Q 1066.5 900 1422 407" opacity="0.74"></path><path d="M 0 370 Q 355.5 -100 711 400 Q 1066.5 900 1422 370" opacity="0.76"></path><path d="M 0 333 Q 355.5 -100 711 400 Q 1066.5 900 1422 333" opacity="0.79"></path><path d="M 0 296 Q 355.5 -100 711 400 Q 1066.5 900 1422 296" opacity="0.82"></path><path d="M 0 259 Q 355.5 -100 711 400 Q 1066.5 900 1422 259" opacity="0.84"></path><path d="M 0 222 Q 355.5 -100 711 400 Q 1066.5 900 1422 222" opacity="0.87"></path><path d="M 0 185 Q 355.5 -100 711 400 Q 1066.5 900 1422 185" opacity="0.89"></path><path d="M 0 148 Q 355.5 -100 711 400 Q 1066.5 900 1422 148" opacity="0.92"></path><path d="M 0 111 Q 355.5 -100 711 400 Q 1066.5 900 1422 111" opacity="0.95"></path><path d="M 0 74 Q 355.5 -100 711 400 Q 1066.5 900 1422 74" opacity="0.97"></path></g></svg>